<?xml version="1.0" encoding="UTF-8" standalone="no"?>
<!DOCTYPE svg PUBLIC "-//W3C//DTD SVG 1.1//EN" "http://www.w3.org/Graphics/SVG/1.1/DTD/svg11.dtd">
<svg width="100%" height="100%" viewBox="0 0 1338 326" version="1.1" xmlns="http://www.w3.org/2000/svg" xmlns:xlink="http://www.w3.org/1999/xlink" xml:space="preserve" xmlns:serif="http://www.serif.com/" style="fill-rule:evenodd;clip-rule:evenodd;stroke-linejoin:round;stroke-miterlimit:2;">
    <g transform="matrix(1,0,0,1,-6.50348,37.8828)">
        <g transform="matrix(332.978,0,0,332.978,0,238.515)">
            <path d="M0.811,-0L0.557,-0L0.02,-0.684L0.273,-0.684L0.811,-0ZM0.447,-0.544L0.557,-0.684L0.811,-0.684L0.574,-0.382L0.447,-0.544ZM0.383,-0.14L0.273,-0L0.02,-0L0.256,-0.301L0.383,-0.14Z" style="fill:rgb(177,0,177);fill-rule:nonzero;"/>
        </g>
        <g transform="matrix(332.978,0,0,332.978,270.87,238.515)">
            <path d="M0.049,-0.83L0.781,-0.098L0.781,0.146L0.049,-0.586L0.049,-0.83ZM0.586,-0.361L0.586,-0.684L0.781,-0.684L0.781,-0.166L0.586,-0.361ZM0.244,-0.322L0.244,-0L0.049,-0L0.049,-0.518L0.244,-0.322Z" style="fill:white;fill-rule:nonzero;"/>
        </g>
        <g transform="matrix(332.978,0,0,332.978,547.268,238.515)">
            <path d="M0.732,-0.537L0.049,-0.537L0.049,-0.684L0.732,-0.684L0.732,-0.537ZM0.049,-0.488L0.244,-0.488L0.244,-0.146L0.732,-0.146L0.732,-0L0.049,-0L0.049,-0.488ZM0.732,-0.244L0.391,-0.244L0.293,-0.391L0.732,-0.391L0.732,-0.244Z" style="fill:white;fill-rule:nonzero;"/>
        </g>
        <g transform="matrix(332.978,0,0,332.978,807.408,238.515)">
            <path d="M0.244,-0L0.049,-0L0.049,-0.488L0.244,-0.488L0.244,-0ZM0.537,-0.537L0.049,-0.537L0.049,-0.684L0.537,-0.684C0.7,-0.684 0.781,-0.618 0.781,-0.488L0.781,-0.439C0.781,-0.335 0.729,-0.272 0.624,-0.252L0.781,-0L0.537,-0L0.293,-0.391L0.537,-0.391C0.57,-0.391 0.586,-0.407 0.586,-0.439L0.586,-0.488C0.586,-0.521 0.57,-0.537 0.537,-0.537Z" style="fill:white;fill-rule:nonzero;"/>
        </g>
        <g transform="matrix(332.978,0,0,332.978,1083.81,238.515)">
            <path d="M0.244,-0L0.049,-0L0.049,-0.488L0.244,-0.488L0.244,-0ZM0.537,-0.537L0.049,-0.537L0.049,-0.684L0.537,-0.684C0.7,-0.684 0.781,-0.618 0.781,-0.488L0.781,-0.195C0.781,-0.065 0.7,-0 0.537,-0L0.293,-0L0.293,-0.146L0.537,-0.146C0.57,-0.146 0.586,-0.163 0.586,-0.195L0.586,-0.488C0.586,-0.521 0.57,-0.537 0.537,-0.537Z" style="fill:white;fill-rule:nonzero;"/>
        </g>
    </g>
</svg>
